Coordinates
version=1
nRows=17
nColumns=24
inDegrees=yes

Units are S.I. units (second, meters, Newtons, ...)
Angles are in degrees.

endheader
time	pelvis_tilt	pelvis_list	pelvis_rotation	pelvis_tx	pelvis_ty	pelvis_tz	hip_flexion_r	hip_adduction_r	hip_rotation_r	knee_angle_r	ankle_angle_r	subtalar_angle_r	mtp_angle_r	hip_flexion_l	hip_adduction_l	hip_rotation_l	knee_angle_l	ankle_angle_l	subtalar_angle_l	mtp_angle_l	lumbar_extension	lumbar_bending	lumbar_rotation
      1.86500000	     24.21907895	      3.69618857	     -4.46769403	      0.67444666	      0.96713541	      0.01553936	    -34.44462050	     -6.97950118	     -6.56548751	    -36.25313774	    -11.53600541	     -1.85912953	     53.59970845	    -11.27507910	      7.57539459	    -12.23534299	     -8.91852268	     -0.59748673	      5.05604949	     24.04492007	    -29.51832815	     -8.03282964	     -1.86576760
      1.87000000	     24.21437100	      3.84414211	     -4.68970872	      0.68025107	      0.96780460	      0.01516105	    -33.56218335	     -7.40683617	     -6.43315698	    -37.84676515	    -12.86684161	     -2.34549355	     53.40337800	    -11.73180303	      7.87119106	    -12.02440226	     -8.74104446	     -0.28838723	      4.85364150	     23.81844748	    -29.44555920	     -8.28702466	     -1.79684379
      1.87500000	     24.21379755	      3.96422870	     -4.87688096	      0.68596146	      0.96849940	      0.01473558	    -32.68176229	     -7.79129590	     -6.31789631	    -39.37757112	    -14.08016112	     -2.67325409	     53.02353696	    -12.17309560	      8.13083883	    -11.80147345	     -8.60782687	      0.04940801	      4.61910460	     23.25313192	    -29.38989043	     -8.49456270	     -1.75355823
      1.88000000	     24.24424048	      4.09120355	     -5.12109488	      0.69174480	      0.96925272	      0.01443488	    -31.83549268	     -8.21142269	     -6.15924081	    -40.84186630	    -15.09236599	     -2.85193874	     52.83668738	    -12.69979723	      8.40908337	    -11.72494559	     -8.36235244	      0.25046369	      4.63617493	     23.13646726	    -29.34960327	     -8.73932251	     -1.69421997
      1.88500000	     24.25243865	      4.15703077	     -5.36296090	      0.69738423	      0.96998585	      0.01413101	    -30.93850157	     -8.55642071	     -5.94223673	    -42.27829918	    -15.88046653	     -3.12429203	     52.57138825	    -13.19924371	      8.62780246	    -11.62606071	     -8.11551327	      0.47608506	      4.52351799	     22.96315598	    -29.29935239	     -8.91541257	     -1.56693579
      1.89000000	     24.22569104	      4.19908656	     -5.55181841	      0.70290047	      0.97067329	      0.01375163	    -29.98744819	     -8.84482109	     -5.75369474	    -43.72730814	    -16.11959050	     -3.08990876	     50.08634014	    -13.65533943	      8.81132265	    -11.40105525	     -7.89217629	      0.98078505	      4.48452710	     21.05018841	    -29.23225232	     -9.03828594	     -1.45574844
      1.89500000	     24.23720959	      4.16695304	     -5.79004692	      0.70839587	      0.97146047	      0.01351357	    -29.08540141	     -9.06435894	     -5.46382286	    -45.03435010	    -16.49833009	     -3.28842014	     49.97999440	    -14.16875654	      8.92326968	    -11.38542523	     -7.62573417	      1.18697727	      4.47714599	     20.99405492	    -29.20239758	     -9.11447460	     -1.27838438
      1.90000000	     24.23397847	      4.11993817	     -6.02360396	      0.71381582	      0.97221518	      0.01327906	    -28.15453969	     -9.25845734	     -5.18085942	    -46.31362547	    -16.55226490	     -3.45500556	     49.80504914	    -14.66922722	      9.02134365	    -11.36068004	     -7.34613710	      1.39853055	      4.43467136	     20.90697201	    -29.16351340	     -9.17051871	     -1.08686142
      1.90500000	     24.17285015	      4.07420473	     -6.20670430	      0.71912945	      0.97289373	      0.01296631	    -27.14212300	     -9.42719983	     -4.94984874	    -47.60751042	    -16.14322705	     -3.24444311	     47.61124301	    -15.08498118	      9.10314703	    -11.26322297	     -7.11210493	      1.76275626	      4.45037532	     19.88101236	    -29.08152741	     -9.19783570	     -0.93813863
      1.91000000	     24.17447140	      3.93121501	     -6.43932960	      0.72439269	      0.97369358	      0.01279718	    -26.21375867	     -9.48995637	     -4.61218246	    -48.75172078	    -15.79010200	     -3.38308154	     47.56433445	    -15.59794712	      9.09950115	    -11.32771437	     -6.81869525	      1.94291005	      4.47371671	     19.84468098	    -29.06781263	     -9.15500395	     -0.69041695
      1.91500000	     24.13150785	      3.79858409	     -6.66114251	      0.72958868	      0.97441769	      0.01261744	    -25.21960123	     -9.55425915	     -4.31151040	    -49.87420643	    -15.24574811	     -3.41959888	     47.44131534	    -16.04614811	      9.09885456	    -11.40570582	     -6.55002223	      2.14041941	      4.52877010	     19.78993234	    -29.01507695	     -9.11301913	     -0.45542054
      1.92000000	     24.04559272	      3.65696484	     -6.86916899	      0.73473230	      0.97507321	      0.01243398	    -24.16207232	     -9.59686070	     -4.03281632	    -50.99396339	    -14.33759498	     -3.07945137	     45.10599390	    -16.43468389	      9.07596787	    -11.50339659	     -6.31647773	      2.50627103	      4.76786922	     18.95387572	    -28.92345730	     -9.05159153	     -0.22035910
      1.92500000	     24.00463809	      3.47567874	     -7.07141746	      0.73977723	      0.97579864	      0.01228389	    -23.17477008	     -9.57453374	     -3.75610567	    -51.98088395	    -13.53567349	     -3.14191845	     45.13043495	    -16.88300174	      9.01953912	    -11.63020336	     -6.04683493	      2.66450109	      4.83100058	     18.93422965	    -28.89682921	     -8.95097053	      0.01330889
      1.93000000	     23.87685637	      3.31209181	     -7.30827581	      0.74483243	      0.97637096	      0.01214916	    -22.05980021	     -9.58598839	     -3.47993393	    -52.95800648	    -12.68775893	     -3.00091180	     44.99549939	    -17.23594793	      8.98403654	    -11.82313619	     -5.77373864	      2.91450382	      5.02155318	     18.89124491	    -28.76743798	     -8.86954566	      0.30415323
      1.93500000	     23.79279010	      3.10753457	     -7.50452348	      0.74979480	      0.97700533	      0.01205019	    -21.01729734	     -9.51290954	     -3.23581093	    -53.86204516	    -11.50658186	     -2.73240667	     42.93730471	    -17.62190428	      8.88726363	    -12.05206047	     -5.54607542	      3.23593366	      5.40439109	     18.23549919	    -28.70626710	     -8.73896777	      0.55270311
      1.94000000	     23.67071308	      2.92234322	     -7.70791913	      0.75474731	      0.97756261	      0.01192481	    -19.93350174	     -9.45735744	     -3.02065451	    -54.67941796	    -10.53898113	     -2.68487846	     42.95868484	    -17.98452381	      8.82304125	    -12.24862932	     -5.26143331	      3.41818330	      5.54720696	     18.22075943	    -28.60201058	     -8.61978567	      0.80616140
      1.94500000	     23.53234392	      2.73238756	     -7.89797800	      0.75965280	      0.97807941	      0.01181614	    -18.83870259	     -9.37662520	     -2.83415534	    -55.42974638	     -9.52652467	     -2.60474630	     42.85529342	    -18.31863223	      8.74179561	    -12.48172240	     -4.99921845	      3.62202226	      5.81074673	     18.19536088	    -28.48987697	     -8.49025711	      1.05435389
